<svg id="Ebene_1" data-name="Ebene 1" xmlns="http://www.w3.org/2000/svg" viewBox="0 0 160 160"><defs><style>.cls-1{fill:#fff;}.cls-2{fill:#0474c6;}</style></defs><path class="cls-1" d="M13.47,114.73a44.21,44.21,0,0,1,6.39,3.11A90.33,90.33,0,0,0,28,122a49.76,49.76,0,0,0,9.61,2.88c5.8,1.34,9.66,2.24,14.95,2.08a47.71,47.71,0,0,0,11.26-1.84c5.47-1.55,7.78-3.19,12.75-5.53a100,100,0,0,1,22.12-7.21A109.39,109.39,0,0,1,116,109.93a149.11,149.11,0,0,0,13.47-10.82c6.44-5.81,8.45-8.06,8.72-8.33,2-2,7.27-5.79,21.75-14A80,80,0,0,0,0,80c0,1,0,2.06.07,3.09A41,41,0,0,1,8.6,84.75a43.65,43.65,0,0,1,11,5.33A45.15,45.15,0,0,1,32.2,102.63,48.54,48.54,0,0,1,20,107.86a48.38,48.38,0,0,1-14.34,1.68c.43,1.07.87,2.13,1.34,3.18.92.21,1.75.43,2.47.64S11.66,114,13.47,114.73Z"/><path class="cls-2" d="M159.92,76.81c-14.48,8.18-19.8,12-21.75,14-.27.27-2.28,2.52-8.72,8.33A149.11,149.11,0,0,1,116,109.93a109.39,109.39,0,0,0-17.31,2.41,100,100,0,0,0-22.12,7.21c-5,2.34-7.28,4-12.75,5.53a47.71,47.71,0,0,1-11.26,1.84c-5.29.16-9.15-.74-14.95-2.08A49.76,49.76,0,0,1,28,122a90.33,90.33,0,0,1-8.12-4.12,44.21,44.21,0,0,0-6.39-3.11c-1.81-.71-3.26-1.16-4-1.37s-1.55-.43-2.47-.64A80,80,0,0,0,160,80C160,78.93,160,77.87,159.92,76.81Z"/><path class="cls-2" d="M20,107.86a48.54,48.54,0,0,0,12.2-5.23A45.15,45.15,0,0,0,19.65,90.08a43.65,43.65,0,0,0-11-5.33A41,41,0,0,0,.07,83.09a79.35,79.35,0,0,0,5.59,26.45A48.38,48.38,0,0,0,20,107.86Z"/><path d="M134.69,88.34c-2.21-3.66-5.47-9.33-9-16.53C121,62,121,59.9,118,54.18c-4.65-8.88-9.82-18.75-20.57-23.36-12.73-5.46-26.26-.54-29.2.52a44.11,44.11,0,0,0-6.57,3c-.26-.15-6.38-3.5-11.88-.22-5,3-5.32,8.84-5.38,9.77-.5,8,6.79,14.2,7.62,14.89,4.56,3.76,8.54,3.78,10.54,8.29a13.17,13.17,0,0,1,.9,5.16,30.37,30.37,0,0,1-3.59,14.35c-2.38,4.7-5.07,12.11-6.17,23.79L52.6,111a31.17,31.17,0,0,1,.52-12.24,59,59,0,0,0-8.18,2.41c-5.65,2.11-8.17,4-13.6,6.57A80.28,80.28,0,0,1,19.8,112.1a52,52,0,0,0,24.05,9.61,44.31,44.31,0,0,0,17.07-.77c5.38-1.38,6.67-2.93,16.62-6.76,2.41-.93,7.39-2.84,12.7-4.35a100.72,100.72,0,0,1,23.18-3.72,103.52,103.52,0,0,0,10.86-7.87A105.45,105.45,0,0,0,134.69,88.34Z"/><path class="cls-1" d="M73.69,38a8.66,8.66,0,0,1,5.13-2c4.67-.15,7.48,3.83,7.69,4.14A8.07,8.07,0,0,1,73.69,38Z"/></svg>
